inDegrees=no
num_controls=7
num_derivatives=13
num_iterations=117
num_multipliers=7
num_parameters=0
num_slacks=7
num_states=26
objective=0.444908
objective_accelerations=0.057889
objective_balance=0.003610
objective_effort=0.023313
objective_height=0.354594
objective_ligament=0.005501
solver_duration=1688.128396
status=Solve_Succeeded
success=true
DataType=double
version=3
OpenSimVersion=4.5
endheader
time	/jointset/ground_pelvis/pelvis_tilt/value	/jointset/ground_pelvis/pelvis_tx/value	/jointset/ground_pelvis/pelvis_ty/value	/jointset/hip_l/hip_flexion_l/value	/jointset/hip_l/hip_adduction_l/value	/jointset/hip_l/hip_rotation_l/value	/jointset/back/lumbar_extension/value	/jointset/patellofemoral_l/patellar_flexion_l/value	/jointset/knee_l/knee_flexion_l/value	/jointset/knee_l/knee_adduction_l/value	/jointset/knee_l/knee_rotation_l/value	/jointset/ankle_l/ankle_angle_l/value	/jointset/subtalar_l/subtalar_angle_l/value	/jointset/ground_pelvis/pelvis_tilt/speed	/jointset/ground_pelvis/pelvis_tx/speed	/jointset/ground_pelvis/pelvis_ty/speed	/jointset/hip_l/hip_flexion_l/speed	/jointset/hip_l/hip_adduction_l/speed	/jointset/hip_l/hip_rotation_l/speed	/jointset/back/lumbar_extension/speed	/jointset/patellofemoral_l/patellar_flexion_l/speed	/jointset/knee_l/knee_flexion_l/speed	/jointset/knee_l/knee_adduction_l/speed	/jointset/knee_l/knee_rotation_l/speed	/jointset/ankle_l/ankle_angle_l/speed	/jointset/subtalar_l/subtalar_angle_l/speed	/forceset/tau_hip_flexion_l	/forceset/tau_hip_adduction_l	/forceset/tau_hip_rotation_l	/forceset/tau_knee_flexion_l	/forceset/tau_ankle_angle_l	/forceset/tau_subtalar_angle_l	/forceset/tau_lumbar_extension	lambda_cid13_p0	lambda_cid13_p1	lambda_cid13_p2	lambda_cid13_p3	lambda_cid13_p4	lambda_cid13_p5	lambda_cid14_p0	/jointset/ground_pelvis/pelvis_tilt/accel	/jointset/ground_pelvis/pelvis_tx/accel	/jointset/ground_pelvis/pelvis_ty/accel	/jointset/hip_l/hip_flexion_l/accel	/jointset/hip_l/hip_adduction_l/accel	/jointset/hip_l/hip_rotation_l/accel	/jointset/back/lumbar_extension/accel	/jointset/patellofemoral_l/patellar_flexion_l/accel	/jointset/knee_l/knee_flexion_l/accel	/jointset/knee_l/knee_adduction_l/accel	/jointset/knee_l/knee_rotation_l/accel	/jointset/ankle_l/ankle_angle_l/accel	/jointset/subtalar_l/subtalar_angle_l/accel	gamma_cid13_p0	gamma_cid13_p1	gamma_cid13_p2	gamma_cid13_p3	gamma_cid13_p4	gamma_cid13_p5	gamma_cid14_p0
1.5	-0.3749948264482459	-0.02662869158854354	0.7601643104037804	1.118168175105391	-0.4351385232908274	-0.2123803317921746	-0.2265842177399041	0.8047838660817703	0.8047838660816569	-0.1313746083862297	-0.1468742405743279	0.1232472124471502	-0.02224293351262933	0.6945037439314484	0.280399315840151	0.5391318075314433	-2.48956789176838	0.2086874657322082	-0.7232991898427626	0.3120919654761521	-2.013676102439398	-2.01367610243941	-0.1280126165073713	0.1310295549855832	-0.3844616755480491	0.04386265211530106	-0.178719365349229	0.02859131235489182	-0.008229656555712343	-0.2014250257530473	0.04352347081118031	0.04406145254137542	0.1713043529025365	-18.19940687552077	-18.91072839367041	6.061628361670611	-7.775365874917909	-520.3322210621847	-61.36645444158405	-24.98283134563313	0.6913507836909729	0.7220182374768153	-0.5169178643078433	-1.325002933493393	0.720023183624443	-0.1862797968388026	1.502199272190203	-1.323390639952404	-1.323390639952409	0.120922646828638	0.2267899022212038	-0.4932524115105097	0.52660662861138	4.872468826954798e-07	5.325655263927448e-07	-2.713073778738633e-06	-8.663008569151613e-08	6.857098677665932e-07	-8.107097443835951e-08	4.519625649856127e-07
1.51	-0.3680153234234408	-0.02378884633656406	0.7655287056333524	1.093208021768051	-0.433017142192563	-0.2196215059012367	-0.2233894344744588	0.7845833466782881	0.7845833466782779	-0.1326515973047039	-0.1455540206919733	0.1193781987225759	-0.02177969895578373	0.701293781877258	0.2875355026534541	0.5336323294648544	-2.502117025033232	0.2155647158715588	-0.7248104928529248	0.3268352832105176	-2.02614506785117	-2.026145067851158	-0.1274007868918794	0.1330176903428321	-0.3892680869215464	0.04878733532158487	-0.1725854676479204	0.02768218713539991	-0.007901243292922924	-0.1986324025587161	0.04348138217901103	0.04339423647635827	0.1663466239792098	-17.99119668446351	-18.66739613134208	6.034237665859238	-7.655247909026685	-516.2999736140246	-61.62902443607014	-25.8968383102592	0.6573872096354002	0.7043176004648044	-0.5835896650558772	-1.167979059922688	0.6679847475046842	-0.1144423139884178	1.455987363714116	-1.166319787807732	-1.166319787804053	0.02913729736425501	0.185000414495913	-0.463348780168737	0.4758226213832987	4.184931497228267e-07	1.01680682234644e-06	-1.853743150796164e-06	8.10381628815548e-08	5.943279802232102e-07	4.074311887550343e-08	4.072944783468252e-07
1.52	-0.3609710086372558	-0.02087865947701003	0.7708346807048143	1.068132754990674	-0.4308277068292217	-0.2268739703925738	-0.2200481001637389	0.764266603561495	0.7642666035615703	-0.1339229030913667	-0.1442138844436055	0.1154633182282878	-0.02126713287592599	0.7074660962074403	0.2944676373550608	0.5274477759094091	-2.512590579775754	0.2222983187474776	-0.7255572662984227	0.341402174531059	-2.036920845103663	-2.036920845103627	-0.126875990138192	0.1350128281808463	-0.3936350294910193	0.05372895671772621	-0.1664515699466001	0.02677306191592467	-0.007572830030405694	-0.1958397793643606	0.04343929354684932	0.04272702041136791	0.1613888950558863	-17.78614549516461	-18.42590167486905	6.009872046115344	-7.563676601565309	-512.3336617524519	-61.93730026508492	-26.81044991747175	0.5678060605655427	0.6812078151375404	-0.6539329620791119	-0.9098872290276967	0.6912937309381094	-0.03337388390597074	1.466913989425403	-0.9847530080964955	-0.9847530080966374	0.1035160744677473	0.2281903983742738	-0.4053586507056191	0.5299942665828815	3.960063459922148e-07	1.277029917263205e-06	-1.485018918135669e-06	1.608894703776997e-07	5.748801871110034e-07	1.299774194331295e-07	3.926994064362422e-07
1.53	-0.353868030743865	-0.01790032363392499	0.7760754602924937	1.04296307161649	-0.4285717758113664	-0.2341302216581511	-0.2165622910180422	0.7438504803078697	0.743850480307723	-0.1351895394749171	-0.1428538144872242	0.1115068069378185	-0.02070528168427275	0.7130201994633433	0.3011492663002002	0.5205986787822174	-2.52097931835854	0.2288624479848772	-0.7256004516222749	0.3557082114145793	-2.046010582858445	-2.046010582858419	-0.1264361157165347	0.1369840887026496	-0.3976002082868056	0.05864066206918747	-0.1603968067340696	0.02606226645844265	-0.007228970001753326	-0.1928029560288691	0.04293308875703228	0.04177653835631431	0.1564191769152239	-17.74622424621106	-18.02540250640929	5.952080823839212	-7.182194718709061	-508.4484647501466	-61.98405218375969	-27.72366445415301	0.5328428580535916	0.654128736434634	-0.7166850410833221	-0.7483176323809022	0.635201457751743	0.02447222872860155	1.404732058783307	-0.8271846144371005	-0.8271846144385261	0.01665070850523815	0.1786580000118268	-0.3820067195081863	0.4716566902924188	4.22678154581271e-07	1.299233673578233e-06	-1.637563980462263e-06	1.474352779796117e-07	6.318623693319205e-07	1.845956901872544e-07	4.100569126743762e-07
1.54	-0.3467127857379244	-0.01485667384094202	0.7812444915182923	1.017720510764581	-0.4262509577136147	-0.2413840521599	-0.2129349647993173	0.7233522395856329	0.7233522395852823	-0.1364512915977177	-0.1414746191014765	0.1075126620142918	-0.02009433383493192	0.7179195187172863	0.3075304273346468	0.5130981035332585	-2.527166075320399	0.2352757347267151	-0.7250731135319929	0.3697055891368179	-2.053344338823953	-2.053344338823937	-0.1258991379952596	0.1388379140615937	-0.401161756102314	0.06354828825523526	-0.1543420435215704	0.0253514710009441	-0.006885109972835841	-0.1897661326934036	0.0424268839672093	0.04082605630123518	0.1514494587745389	-17.70839213706301	-17.62883720918352	5.89982917674733	-6.839517887080994	-504.6099056382678	-62.08117225959425	-28.63716894238657	0.4368492601735701	0.6211142329989674	-0.784228586432594	-0.4694909048424781	0.6611252318257496	0.08073079892088379	1.405182157169088	-0.6335566502420896	-0.6335566502420685	0.1229367343913141	0.2047033658024354	-0.3246324546500347	0.5291784335001831	4.307353240949438e-07	1.39616308556788e-06	-1.635861498483202e-06	1.625442873449593e-07	6.604272578460491e-07	2.391601495960579e-07	4.177968776146072e-07
1.55	-0.3395118287777891	-0.01175072693195649	0.7863353624503323	0.9924269374772895	-0.4238668660318551	-0.2486303461903829	-0.2091694344228154	0.7027894939686091	0.7027894939682292	-0.1377070228203381	-0.1400779163475941	0.1034850187621183	-0.01943437484609278	0.7221539615328726	0.3136064351911712	0.5049756551787214	-2.531180017421159	0.2415061384523035	-0.7240754836832952	0.3833342686577005	-2.058903376195034	-2.058903376195026	-0.1252531242591947	0.1404949054236794	-0.4042887111313606	0.06843683400498909	-0.1480774579522948	0.02415999317576933	-0.006583307486404133	-0.1873272752250789	0.04257025104838713	0.0397882695623108	0.1463130554708973	-17.4805332491209	-17.22692958143656	5.845927190291826	-6.60155710789115	-500.9972144865237	-62.19286064668211	-29.55223608231988	0.3990609461584048	0.5930136193189318	-0.8411863283583221	-0.3120461624789796	0.5984749418261663	0.1261861668551008	1.331778223686819	-0.4719485426674224	-0.4719485426687499	0.03475606903058352	0.1447216087324996	-0.2949452548096148	0.4675808738561809	4.173451920652412e-07	1.579189448660888e-06	-1.456439019804157e-06	2.105630726551331e-07	6.562504818719232e-07	2.936626089765562e-07	4.144557623637768e-07
1.56	-0.3322720635587164	-0.008585586032937773	0.7913420222251483	0.9671042847090328	-0.4214215749130589	-0.2558632825045758	-0.2052696037762771	0.6821801837254539	0.6821801837250371	-0.1389564294304479	-0.138664938762613	0.0994284623140993	-0.01872575275412741	0.7256811705047469	0.3193692253412855	0.4962558720884207	-2.532981971513371	0.2475156221339218	-0.72240157027416	0.3965656431441421	-2.062657264051173	-2.062657264051174	-0.1246342154904676	0.1420928802785984	-0.4069443952715128	0.07328090888047131	-0.1418128723830182	0.02296851535060086	-0.006281505000062587	-0.1848884177567452	0.04271361812956807	0.03875048282339678	0.1411766521672533	-17.25465419296378	-16.82842432189453	5.796850977809831	-6.398084637590199	-497.4263828897536	-62.3521753442586	-30.4647483764514	0.295402491431192	0.5584706917169597	-0.9036955335853286	-0.02709330313313772	0.6169412230317536	0.2159875110084363	1.325721150280909	-0.2725267472538941	-0.2725267472538868	0.1175157409237789	0.1929000643690676	-0.2303782768711705	0.5202842586458596	3.891226210612514e-07	1.735572234399894e-06	-1.242839859801257e-06	2.637976600221769e-07	6.220579081962347e-07	3.342319483766845e-07	4.030787511527779e-07
1.57	-0.3250006453004542	-0.005364488425045708	0.7962585466151595	0.9417749669729656	-0.4189172315772151	-0.2630768724639514	-0.2012395310617079	0.6615427016834668	0.6615427016831373	-0.1401990468630221	-0.1372368001212708	0.09534783108764035	-0.01796874116058469	0.7284816939858271	0.32478606895559	0.4869573860967258	-2.532501191154344	0.2533099974260008	-0.7202103245443134	0.4093629234579093	-2.064526746443047	-2.064526746443114	-0.1238927658466729	0.1435211863495674	-0.4091046476533781	0.07810767515733744	-0.1356294518843543	0.02169364145100541	-0.005993516577130029	-0.1823624748280876	0.04261560187914518	0.03760486982610856	0.1360620257289464	-17.12396548759058	-16.36556795677729	5.736537853164599	-6.02877312123232	-494.0444373443607	-62.43492699252891	-31.35942029520125	0.2542472334060546	0.5237286952562131	-0.9565662931917531	0.1427148061742761	0.5540753741084756	0.2369364816902959	1.243835025173541	-0.0973731643260124	-0.09737316433597751	0.05222302091885009	0.1155216327608252	-0.1972052671826729	0.4616026759195664	3.423595013394028e-07	1.858650548446396e-06	-9.865198481435393e-07	3.235519999603082e-07	5.503455873935934e-07	3.573848878013502e-07	3.816568699915682e-07
1.58	-0.3177048478159889	-0.002091134881216794	0.8010793579130078	0.9164618672606398	-0.4163562665500869	-0.2702653012904847	-0.1970840648333514	0.6408958819817288	0.6408958819814826	-0.1414342971102026	-0.1357948332683525	0.09124792602769534	-0.01716391593153074	0.7305570157452899	0.3298204125286548	0.4771132536558247	-2.529738366765174	0.2588399603905779	-0.7173693437057643	0.4216443459016327	-2.064524796001793	-2.064524796001927	-0.1231607784104155	0.1448585225925361	-0.4107991619687819	0.08284363598270712	-0.1294460313856881	0.02041876755141556	-0.005705528154240195	-0.1798365318994243	0.04251758562872496	0.03645925682882862	0.1309473992906382	-17.00176805618379	-15.90465884056458	5.680458456924989	-5.665245059021724	-490.7917024906089	-62.57143861283686	-32.23060761117348	0.150362147107703	0.4819706834690037	-1.012824823426559	0.4293155028954732	0.564058757531377	0.3459345327489543	1.222549576272155	0.1017598193717532	0.1017598193717543	0.1156232994163014	0.1747060987690209	-0.1372306635788607	0.5021231683465698	3.012346957211708e-07	1.969727364622273e-06	-7.635928659311452e-07	3.721144597464643e-07	4.930683718410976e-07	3.764012385556378e-07	3.622747285462779e-07
